<svg width="50" height="50" viewBox="0 0 50 50" fill="none" xmlns="http://www.w3.org/2000/svg">
<g clip-path="url(#clip0_2011_69)">
<path d="M25 3C20.6488 3 16.3953 4.29028 12.7775 6.70767C9.15958 9.12506 6.33979 12.561 4.67466 16.581C3.00953 20.6009 2.57386 25.0244 3.42273 29.292C4.27161 33.5596 6.3669 37.4796 9.44366 40.5563C12.5204 43.6331 16.4404 45.7284 20.708 46.5773C24.9756 47.4261 29.3991 46.9905 33.419 45.3253C37.439 43.6602 40.8749 40.8404 43.2923 37.2225C45.7097 33.6047 47 29.3512 47 25C47 19.1652 44.6822 13.5694 40.5564 9.44365C36.4306 5.31785 30.8348 3 25 3ZM36 24.4087C35.6326 24.7682 35.139 24.9695 34.625 24.9695C34.111 24.9695 33.6174 24.7682 33.25 24.4087L26.925 18.125V37.5675C26.925 38.078 26.7222 38.5677 26.3612 38.9287C26.0002 39.2897 25.5105 39.4925 25 39.4925C24.4895 39.4925 23.9998 39.2897 23.6388 38.9287C23.2778 38.5677 23.075 38.078 23.075 37.5675V18.3175L16.9838 24.4087C16.6191 24.7734 16.1245 24.9783 15.6088 24.9783C15.093 24.9783 14.5984 24.7734 14.2338 24.4087C13.8691 24.0441 13.6642 23.5495 13.6642 23.0337C13.6642 22.518 13.8691 22.0234 14.2338 21.6587L25.11 10.8375L36 21.6862C36.1788 21.865 36.3206 22.0772 36.4173 22.3108C36.5141 22.5443 36.5639 22.7947 36.5639 23.0475C36.5639 23.3003 36.5141 23.5506 36.4173 23.7842C36.3206 24.0178 36.1788 24.23 36 24.4087Z" fill="white"/>
</g>
<defs>
<clipPath id="clip0_2011_69">
<rect width="50" height="50" fill="white"/>
</clipPath>
</defs>
</svg>
