<svg width="50" height="50" viewBox="0 0 50 50" fill="none" xmlns="http://www.w3.org/2000/svg">
<g clip-path="url(#clip0_2054_354)">
<path d="M2.77783 25C2.77783 29.3951 4.08114 33.6916 6.52295 37.346C8.96476 41.0004 12.4354 43.8487 16.496 45.5307C20.5566 47.2126 25.0247 47.6527 29.3354 46.7952C33.6461 45.9378 37.6057 43.8213 40.7135 40.7135C43.8214 37.6056 45.9378 33.646 46.7953 29.3353C47.6527 25.0246 47.2127 20.5565 45.5307 16.4959C43.8488 12.4353 41.0005 8.9647 37.3461 6.5229C33.6916 4.08109 29.3952 2.77777 25.0001 2.77777C19.1064 2.77777 13.454 5.11904 9.28657 9.28651C5.1191 13.454 2.77783 19.1063 2.77783 25ZM24.4028 13.8889C24.7659 14.26 24.9692 14.7586 24.9692 15.2778C24.9692 15.797 24.7659 16.2955 24.4028 16.6667L18.0556 23.0556L37.6945 23.0556C38.2102 23.0556 38.7048 23.2604 39.0694 23.6251C39.4341 23.9897 39.6389 24.4843 39.6389 25C39.6389 25.5157 39.4341 26.0103 39.0694 26.3749C38.7048 26.7396 38.2102 26.9444 37.6945 26.9444L18.2501 26.9444L24.4028 33.0972C24.7712 33.4656 24.9781 33.9652 24.9781 34.4861C24.9781 35.007 24.7712 35.5066 24.4028 35.875C24.0345 36.2434 23.5349 36.4503 23.0139 36.4503C22.493 36.4503 21.9934 36.2434 21.6251 35.875L10.6945 24.8889L21.6528 13.8889C21.8334 13.7083 22.0478 13.5651 22.2837 13.4673C22.5196 13.3696 22.7725 13.3193 23.0278 13.3193C23.2832 13.3193 23.5361 13.3696 23.772 13.4673C24.0079 13.5651 24.2223 13.7083 24.4028 13.8889Z" fill="white" fill-opacity="0.6"/>
</g>
<defs>
<clipPath id="clip0_2054_354">
<rect width="50" height="50" fill="white"/>
</clipPath>
</defs>
</svg>
