<svg width="50" height="50" viewBox="0 0 50 50" fill="none" xmlns="http://www.w3.org/2000/svg">
<g clip-path="url(#clip0_2054_357)">
<path d="M47.2222 25C47.2222 20.6049 45.9189 16.3084 43.477 12.654C41.0352 8.99957 37.5646 6.15129 33.504 4.46935C29.4434 2.7874 24.9753 2.34733 20.6646 3.20477C16.3539 4.06222 12.3943 6.17869 9.28646 9.28652C6.17863 12.3944 4.06217 16.354 3.20472 20.6647C2.34727 24.9754 2.78734 29.4435 4.46929 33.5041C6.15124 37.5647 8.99952 41.0353 12.6539 43.4771C16.3084 45.9189 20.6048 47.2222 24.9999 47.2222C30.8936 47.2222 36.546 44.881 40.7134 40.7135C44.8809 36.546 47.2222 30.8937 47.2222 25ZM25.5972 36.1111C25.2341 35.74 25.0308 35.2414 25.0308 34.7222C25.0308 34.203 25.2341 33.7045 25.5972 33.3333L31.9444 26.9444L12.3055 26.9444C11.7898 26.9444 11.2952 26.7396 10.9306 26.3749C10.5659 26.0103 10.3611 25.5157 10.3611 25C10.3611 24.4843 10.5659 23.9897 10.9306 23.6251C11.2952 23.2604 11.7898 23.0556 12.3055 23.0556L31.7499 23.0556L25.5972 16.9028C25.2288 16.5344 25.0219 16.0348 25.0219 15.5139C25.0219 14.993 25.2288 14.4934 25.5972 14.125C25.9655 13.7566 26.4651 13.5497 26.9861 13.5497C27.507 13.5497 28.0066 13.7566 28.3749 14.125L39.3055 25.1111L28.3472 36.1111C28.1666 36.2917 27.9522 36.4349 27.7163 36.5327C27.4804 36.6304 27.2275 36.6807 26.9722 36.6807C26.7168 36.6807 26.4639 36.6304 26.228 36.5327C25.9921 36.4349 25.7777 36.2917 25.5972 36.1111Z" fill="white"/>
</g>
<defs>
<clipPath id="clip0_2054_357">
<rect width="50" height="50" fill="white"/>
</clipPath>
</defs>
</svg>
