<svg width="130" height="130" viewBox="0 0 130 130" fill="none" xmlns="http://www.w3.org/2000/svg">
<path d="M69.0625 28.4375V8.125H28.4375C27.3601 8.125 26.3267 8.55301 25.5649 9.31488C24.803 10.0767 24.375 11.1101 24.375 12.1875V56.875H105.625V12.1875C105.625 11.1101 105.197 10.0767 104.435 9.31488C103.673 8.55301 102.64 8.125 101.562 8.125H93.4375V36.5625C93.4375 37.6399 93.0095 38.6733 92.2476 39.4351C91.4858 40.197 90.4524 40.625 89.375 40.625C88.2976 40.625 87.2642 40.197 86.5024 39.4351C85.7405 38.6733 85.3125 37.6399 85.3125 36.5625V8.125H77.1875V28.4375C77.1875 29.5149 76.7595 30.5483 75.9976 31.3101C75.2358 32.072 74.2024 32.5 73.125 32.5C72.0476 32.5 71.0142 32.072 70.2524 31.3101C69.4905 30.5483 69.0625 29.5149 69.0625 28.4375ZM105.625 65H24.375V76.1719C24.375 77.9057 24.7165 79.6226 25.38 81.2245C26.0435 82.8264 27.0161 84.2819 28.2421 85.5079C29.4681 86.7339 30.9236 87.7065 32.5255 88.37C34.1274 89.0335 35.8443 89.375 37.5781 89.375H52.8125V109.688C52.8125 112.92 54.0965 116.02 56.3821 118.305C58.6677 120.591 61.7677 121.875 65 121.875C68.2323 121.875 71.3323 120.591 73.6179 118.305C75.9035 116.02 77.1875 112.92 77.1875 109.688V89.375H92.4219C94.1557 89.375 95.8726 89.0335 97.4745 88.37C99.0764 87.7065 100.532 86.7339 101.758 85.5079C102.984 84.2819 103.956 82.8264 104.62 81.2245C105.283 79.6226 105.625 77.9057 105.625 76.1719V65Z" fill="white"/>
</svg>
