<svg width="18" height="18" viewBox="0 0 18 18" fill="none" xmlns="http://www.w3.org/2000/svg">
<path fill-rule="evenodd" clip-rule="evenodd" d="M2.7 2H16.3C17.235 2 18 2.73125 18 3.625V13.375C18 14.2688 17.235 15 16.3 15H2.7C1.765 15 1 14.2688 1 13.375V3.625C1 2.73125 1.765 2 2.7 2ZM10.9275 8.74233L16.65 5.31509C16.8688 5.18102 17 4.95477 17 4.71176C17 4.15033 16.3612 3.81515 15.8625 4.10844L10 7.61947L4.1375 4.10844C3.63875 3.81515 3 4.15033 3 4.71176C3 4.95477 3.13125 5.18102 3.35 5.31509L9.0725 8.74233C9.64125 9.08589 10.3588 9.08589 10.9275 8.74233Z" fill="white"/>
</svg>
