<svg width="18" height="18" viewBox="0 0 18 18" fill="none" xmlns="http://www.w3.org/2000/svg">
<path fill-rule="evenodd" clip-rule="evenodd" d="M2.57292 2H15.9062C16.8229 2 17.5729 2.75 17.5729 3.66667V13.6667C17.5729 14.5833 16.8229 15.3333 15.9062 15.3333H2.57292C1.65625 15.3333 0.90625 14.5833 0.90625 13.6667V3.66667C0.90625 2.75 1.65625 2 2.57292 2ZM10.1229 8.94998L15.5729 5.54165C15.7813 5.40831 15.9063 5.18331 15.9063 4.94165C15.9063 4.38331 15.2979 4.04998 14.8229 4.34165L9.2396 7.83331L3.65626 4.34165C3.18126 4.04998 2.57293 4.38331 2.57293 4.94165C2.57293 5.18331 2.69793 5.40831 2.90626 5.54165L8.35626 8.94998C8.89793 9.29165 9.58126 9.29165 10.1229 8.94998Z" fill="#0059C2"/>
</svg>
