<svg width="14" height="18" viewBox="0 0 14 18" fill="none" xmlns="http://www.w3.org/2000/svg">
<path d="M7 9.17197C7.48125 9.17197 7.89337 8.9922 8.23637 8.63266C8.57879 8.27373 8.75 7.84204 8.75 7.33758C8.75 6.83312 8.57879 6.40112 8.23637 6.04158C7.89337 5.68265 7.48125 5.50318 7 5.50318C6.51875 5.50318 6.10692 5.68265 5.7645 6.04158C5.4215 6.40112 5.25 6.83312 5.25 7.33758C5.25 7.84204 5.4215 8.27373 5.7645 8.63266C6.10692 8.9922 6.51875 9.17197 7 9.17197ZM7 18C6.88333 18 6.76667 17.9771 6.65 17.9312C6.53333 17.8853 6.43125 17.8242 6.34375 17.7478C4.21458 15.7758 2.625 13.9454 1.575 12.2565C0.525 10.567 0 8.98853 0 7.52102C0 5.22803 0.703792 3.40127 2.11138 2.04076C3.51838 0.680255 5.14792 0 7 0C8.85208 0 10.4816 0.680255 11.8886 2.04076C13.2962 3.40127 14 5.22803 14 7.52102C14 8.98853 13.475 10.567 12.425 12.2565C11.375 13.9454 9.78542 15.7758 7.65625 17.7478C7.56875 17.8242 7.46667 17.8853 7.35 17.9312C7.23333 17.9771 7.11667 18 7 18Z" fill="#0059C2"/>
</svg>
