<svg width="144" height="48" viewBox="0 0 144 48" fill="none" xmlns="http://www.w3.org/2000/svg">
<g clip-path="url(#clip0_2011_893)">
<path d="M57.4521 45.8135C58.3671 46.3507 59.4214 46.6352 60.497 46.635C62.2432 46.635 63.267 45.7588 63.267 44.4907C63.267 43.3322 62.5579 42.6413 60.7717 42.0052C58.6089 41.2595 57.2748 40.1768 57.2748 38.4201C57.2748 36.4569 58.9856 35.0035 61.5607 35.0035C62.5691 34.9697 63.57 35.1814 64.4681 35.6186L63.9983 36.9456C63.2373 36.5389 62.376 36.3324 61.503 36.3474C59.6947 36.3474 59.0078 37.3753 59.0078 38.2347C59.0078 39.4101 59.81 39.9872 61.6404 40.6613C63.8831 41.5038 65 42.5107 65 44.3601C65 46.298 63.5064 48 60.3817 48C59.1966 48.0033 58.031 47.7129 57 47.1574L57.4521 45.8135Z" fill="white"/>
<path d="M68.6985 36.427H65V35H74V36.427H70.2853V48H68.6985V36.427Z" fill="white"/>
<path d="M77.5769 35V42.5919C77.5769 45.4394 78.8025 46.6555 80.4367 46.6555C82.2301 46.6555 83.4067 45.4009 83.4067 42.5919V35H85V42.4763C85 46.4071 83.0268 48 80.3836 48C77.8833 48 76 46.5184 76 42.5319V35H77.5769Z" fill="white"/>
<path d="M88 35.2826C89.1036 35.0913 90.2203 34.9969 91.3388 35.0001C93.5945 35.0001 95.2028 35.5694 96.2655 36.5923C97.3282 37.6153 98 39.1177 98 41.1851C98 43.2524 97.3689 44.9817 96.2492 46.1587C95.1295 47.3358 93.2158 47.9992 90.8542 47.9992C89.9022 48.0069 88.9506 47.9569 88.0041 47.8494L88 35.2826ZM89.5717 46.591C90.0991 46.6496 90.6293 46.6754 91.1596 46.6681C94.535 46.6681 96.3388 44.6949 96.3388 41.2407C96.3388 38.2445 94.7345 36.3056 91.4121 36.3056C90.7946 36.2955 90.1778 36.3529 89.5717 36.4768V46.591Z" fill="white"/>
<path d="M102 35V48H100V35H102Z" fill="white"/>
<path d="M116 41.378C116 45.6861 113.253 48 109.903 48C106.413 48 104 45.4084 104 41.601C104 37.6084 106.571 35 110.079 35C113.684 34.9958 116 37.6252 116 41.378ZM105.789 41.5631C105.789 44.2683 107.31 46.6748 110 46.6748C112.69 46.6748 114.207 44.3061 114.207 41.4537C114.207 38.9295 112.84 36.3252 110.018 36.3252C107.196 36.3252 105.793 38.8201 105.793 41.5631H105.789Z" fill="white"/>
<path d="M88 22.3618C88 27.8686 84.7497 31 80.3698 31C75.8429 31 73 27.4411 73 22.6382C73 17.5676 76.1033 14 80.6092 14C85.2536 14.0216 88 17.6583 88 22.3618ZM76.0739 22.5821C76.0739 25.9466 77.7116 28.6029 80.5084 28.6029C83.3052 28.6029 84.9177 25.8948 84.9177 22.4611C84.9177 19.3643 83.4227 16.4403 80.5084 16.4403C77.5941 16.4403 76.0739 19.1916 76.0739 22.5821Z" fill="white"/>
<path d="M91 14H94.0725V27.5579H101V30H91V14Z" fill="white"/>
<path d="M103 14.3264C104.577 14.1104 106.167 14.0013 107.76 14C110.82 14 112.924 14.6074 114.418 15.8181C116.023 17.0577 117 18.9461 117 21.603C117 24.4252 116.006 26.5036 114.448 27.8548C112.821 29.2762 110.222 29.9994 107.041 29.9994C105.694 30.0076 104.347 29.9372 103.009 29.7886L103 14.3264ZM105.987 27.6689C106.535 27.7324 107.087 27.7559 107.639 27.7391C111.513 27.7639 113.832 25.6731 113.832 21.698C113.854 18.2478 111.767 16.2396 108.027 16.2396C107.343 16.2248 106.659 16.2788 105.987 16.4007V27.6689Z" fill="white"/>
<path d="M128.265 22.9011H122.043V27.6084H129V30H119V14H128.622V16.4H122.043V20.5263H128.265V22.9011Z" fill="white"/>
<path d="M131 30V14H134.439L138.661 20.8674C139.694 22.5901 140.616 24.3747 141.421 26.2105H141.468C141.265 23.9974 141.176 21.7756 141.201 19.5537V14H144V30H140.892L136.606 22.9474C135.527 21.165 134.551 19.3249 133.683 17.4358L133.588 17.4611C133.708 19.5326 133.756 21.6421 133.756 24.2821V30H131Z" fill="white"/>
<path d="M65.4086 21.1677H64.6505C64.6505 21.1677 64.9951 23.4417 66.24 23.4417H68.088V27.347C67.3595 27.5777 66.5931 27.6796 65.8265 27.6478C62.4234 27.6478 60.1403 25.5303 60.1403 21.9752C60.1403 18.3253 62.5957 16.3479 66.0979 16.3479C67.3751 16.3098 68.6447 16.5492 69.8111 17.0482L70.4702 14.7454C69.0879 14.2174 67.6073 13.965 66.1194 14.0039C60.696 14.0039 57.0258 17.1677 57 22.14C57 24.5128 57.8271 26.5808 59.2874 27.9073C60.8425 29.3244 62.9575 30 65.7489 30C67.5382 29.9854 69.3125 29.6875 71 29.1184V21.1677H65.4086Z" fill="white"/>
<path d="M24 30.4053L25.1015 32.3879C25.2847 32.6576 25.53 32.8785 25.8163 33.0316C26.1026 33.1847 26.4214 33.2656 26.7454 33.2672C26.8432 33.2663 26.9407 33.258 27.0372 33.2423L30.1115 32.728V32.7654H30.1567L27.5263 41.5876L31.1677 48H32.2363C32.6392 47.9913 33.0304 47.8615 33.3598 47.6273C33.6893 47.3931 33.942 47.0651 34.0858 46.6852L40 27L24 30.4053Z" fill="#F0B500"/>
<path d="M24 30.2764L25.1026 32.1909C25.2194 32.3325 25.3458 32.4664 25.4811 32.5915C25.5743 32.6699 25.6749 32.7396 25.7814 32.7997C25.8267 32.8278 25.8802 32.8398 25.9295 32.8638C26.0608 32.9245 26.1989 32.9702 26.341 33L40 27.028V27L24 30.2764Z" fill="#FDC600"/>
<path d="M24 30.5413L24.2603 31L40.3014 27.3087L41 27L24 30.5413Z" fill="#FFD444"/>
<path d="M47.8777 0C47.7812 0.0008807 47.6853 0.0134053 47.592 0.0372857L1.06329 14.732C0.823707 14.8621 0.613057 15.0371 0.443518 15.2468C0.273978 15.4565 0.148911 15.6968 0.0755497 15.9538C0.00218829 16.2107 -0.0180127 16.4793 0.0161147 16.7439C0.0502422 17.0085 0.138021 17.2639 0.274376 17.4953L6.90976 29L42.8756 20.0183H42.9438C43.0154 19.994 43.0797 19.953 43.131 19.8988C43.1824 19.8446 43.2191 19.7789 43.2381 19.7076L48.9609 1.37957C49.006 1.21768 49.0122 1.04788 48.979 0.883297C48.9458 0.718712 48.874 0.563752 48.7693 0.430399C48.6646 0.297046 48.5298 0.188872 48.3752 0.114241C48.2206 0.0396108 48.0504 0.000522925 47.8777 0Z" fill="#F0B500"/>
<path d="M19 28.3283C18.9187 28.1973 18.7976 28.0973 18.6554 28.0437C18.5132 27.99 18.3577 27.9857 18.2128 28.0313L8 30.7252L16.8829 46.9649C17.0557 47.2701 17.3015 47.5253 17.5972 47.7064C17.893 47.8875 18.2289 47.9885 18.5733 48H30L19 28.3283Z" fill="#F0B500"/>
<path d="M8.49072e-08 16.4263C-0.000102443 16.7797 0.0926509 17.127 0.269143 17.4342L6.81269 29L48 0.17076C47.9611 0.140605 47.9203 0.112789 47.878 0.0874623C47.6443 0.0456233 47.4085 0.0164259 47.1715 0C47.0748 0 45.788 0.358179 45.7039 0.416487L24.1262 7.22189L1.04714 14.6562C0.730348 14.8334 0.466588 15.0905 0.282665 15.4014C0.0987429 15.7123 0.00121662 16.0659 8.49072e-08 16.4263Z" fill="#FDC600"/>
<path d="M0.788946 15.9826L46.8464 0.594166C47.1942 0.475776 47.5507 0.384316 47.9125 0.320593C48.059 0.330306 48.203 0.363499 48.339 0.418909C48.5141 0.479646 48.6689 0.588295 48.7857 0.732574C48.9025 0.876853 48.9767 1.05101 49 1.23535C49 1.20116 49 1.16696 49 1.13276C49.0011 0.984412 48.9729 0.837304 48.9171 0.699919C48.8612 0.562535 48.7788 0.437592 48.6745 0.332292C48.5702 0.226991 48.4462 0.143417 48.3096 0.0863861C48.1729 0.0293552 48.0264 -4.28926e-06 47.8784 4.70013e-10C47.7819 0.000908702 47.6859 0.0138315 47.5927 0.0384712L1.06188 15.2004C0.743412 15.3812 0.477781 15.6425 0.291464 15.9582C0.105147 16.274 0.00465321 16.6332 0 17C0.281462 16.1237 0.788946 15.9826 0.788946 15.9826Z" fill="#FFD444"/>
</g>
<defs>
<clipPath id="clip0_2011_893">
<rect width="144" height="48" fill="white"/>
</clipPath>
</defs>
</svg>
