<svg width="50" height="35" viewBox="0 0 50 35" fill="none" xmlns="http://www.w3.org/2000/svg">
<g clip-path="url(#clip0_2023_921)">
<path d="M5.55556 0.230225C2.49132 0.230225 0 2.81169 0 5.9868V29.0131C0 32.1882 2.49132 34.7697 5.55556 34.7697H44.4444C47.5087 34.7697 50 32.1882 50 29.0131V5.9868C50 2.81169 47.5087 0.230225 44.4444 0.230225H5.55556ZM9.72222 14.6217H23.6111C24.375 14.6217 25 15.2693 25 16.0608C25 16.8523 24.375 17.5 23.6111 17.5H9.72222C8.95833 17.5 8.33333 16.8523 8.33333 16.0608C8.33333 15.2693 8.95833 14.6217 9.72222 14.6217ZM8.33333 24.6957C8.33333 23.9042 8.95833 23.2565 9.72222 23.2565H40.2778C41.0417 23.2565 41.6667 23.9042 41.6667 24.6957C41.6667 25.4872 41.0417 26.1348 40.2778 26.1348H9.72222C8.95833 26.1348 8.33333 25.4872 8.33333 24.6957ZM32.6389 8.86509H39.5833C40.7378 8.86509 41.6667 9.82752 41.6667 11.0238V15.3412C41.6667 16.5375 40.7378 17.5 39.5833 17.5H32.6389C31.4844 17.5 30.5556 16.5375 30.5556 15.3412V11.0238C30.5556 9.82752 31.4844 8.86509 32.6389 8.86509Z" fill="#007CC2"/>
</g>
<defs>
<clipPath id="clip0_2023_921">
<rect width="50" height="35" fill="white"/>
</clipPath>
</defs>
</svg>
