<svg width="50" height="50" viewBox="0 0 50 50" fill="none" xmlns="http://www.w3.org/2000/svg">
<g clip-path="url(#clip0_2010_20)">
<path fill-rule="evenodd" clip-rule="evenodd" d="M15.5358 2.0607C18.6801 0.6983 22.071 -0.0031173 25.4978 1.04142e-05C28.9247 0.00313813 32.3142 0.710744 35.4561 2.07888C38.598 3.44703 41.425 5.44649 43.7617 7.9531C46.0984 10.4597 47.8948 13.42 49.0393 16.65C50.0036 19.3571 49.575 22.4571 47.9143 24.8C47.0823 25.9627 45.9859 26.9109 44.7155 27.5667C43.445 28.2224 42.0369 28.5668 40.6072 28.5714H33.9286C32.647 28.5669 31.4062 29.022 30.4314 29.8541C29.4566 30.6862 28.8125 31.8403 28.6159 33.1067C28.4193 34.3732 28.6832 35.6682 29.3599 36.7567C30.0365 37.8452 31.0809 38.6551 32.3036 39.0393C34.2679 39.7714 35.6429 41.5464 35.775 43.6321C35.9039 44.8178 35.6138 46.0112 34.9549 47.0053C34.2961 47.9995 33.3101 48.7317 32.1679 49.075C29.9863 49.695 27.7287 50.0063 25.4608 50C20.8799 49.9972 16.3878 48.7358 12.475 46.3536C8.57611 43.9543 5.40452 40.5381 3.301 36.472C1.19747 32.4059 0.241487 27.8435 0.535758 23.275C0.873132 18.7099 2.44776 14.323 5.09051 10.5853C7.73327 6.84774 11.3443 3.90068 15.5358 2.0607ZM16.0715 25C16.775 25 17.4716 24.8614 18.1216 24.5922C18.7715 24.323 19.3621 23.9284 19.8595 23.4309C20.357 22.9335 20.7516 22.3429 21.0208 21.6929C21.2901 21.043 21.4286 20.3464 21.4286 19.6428C21.4286 18.9393 21.2901 18.2427 21.0208 17.5928C20.7516 16.9428 20.357 16.3522 19.8595 15.8548C19.3621 15.3573 18.7715 14.9627 18.1216 14.6935C17.4716 14.4243 16.775 14.2857 16.0715 14.2857C14.6507 14.2857 13.2881 14.8501 12.2834 15.8548C11.2787 16.8594 10.7143 18.222 10.7143 19.6428C10.7143 21.0636 11.2787 22.4263 12.2834 23.4309C13.2881 24.4356 14.6507 25 16.0715 25ZM37.5 14.2857C37.5 15.7065 36.9356 17.0691 35.931 18.0738C34.9263 19.0784 33.5637 19.6428 32.1429 19.6428C30.7221 19.6428 29.3595 19.0784 28.3548 18.0738C27.3502 17.0691 26.7858 15.7065 26.7858 14.2857C26.7858 12.8649 27.3502 11.5023 28.3548 10.4976C29.3595 9.49297 30.7221 8.92856 32.1429 8.92856C33.5637 8.92856 34.9263 9.49297 35.931 10.4976C36.9356 11.5023 37.5 12.8649 37.5 14.2857ZM16.0715 37.5C17.0187 37.5 17.9271 37.1237 18.5969 36.4539C19.2666 35.7842 19.6429 34.8758 19.6429 33.9286C19.6429 32.9814 19.2666 32.073 18.5969 31.4032C17.9271 30.7334 17.0187 30.3571 16.0715 30.3571C15.1243 30.3571 14.2159 30.7334 13.5461 31.4032C12.8763 32.073 12.5 32.9814 12.5 33.9286C12.5 34.8758 12.8763 35.7842 13.5461 36.4539C14.2159 37.1237 15.1243 37.5 16.0715 37.5Z" fill="#007CC2"/>
</g>
<defs>
<clipPath id="clip0_2010_20">
<rect width="50" height="50" fill="white"/>
</clipPath>
</defs>
</svg>
