<svg width="50" height="50" viewBox="0 0 50 50" fill="none" xmlns="http://www.w3.org/2000/svg">
<path fill-rule="evenodd" clip-rule="evenodd" d="M19.9834 6.66666C19.6557 6.96314 19.3114 7.24068 18.9521 7.49791C18.3313 7.91458 17.6334 8.20208 16.9 8.34791C16.5813 8.41041 16.248 8.4375 15.5834 8.48958C13.9146 8.62291 13.0792 8.68958 12.3834 8.93541C11.5878 9.21632 10.8651 9.6718 10.2685 10.2684C9.67186 10.8651 9.21638 11.5877 8.93547 12.3833C8.68963 13.0792 8.62296 13.9146 8.48963 15.5833C8.46691 16.0245 8.41961 16.4641 8.34797 16.9C8.20213 17.6333 7.91463 18.3312 7.49797 18.9521C7.31672 19.2229 7.10005 19.4771 6.66672 19.9833C5.5813 21.2583 5.03755 21.8958 4.7188 22.5625C3.98338 24.1042 3.98338 25.8958 4.7188 27.4375C5.03755 28.1042 5.5813 28.7417 6.66672 30.0167C7.10005 30.5229 7.31672 30.7771 7.49797 31.0479C7.91463 31.6687 8.20213 32.3667 8.34797 33.1C8.41047 33.4187 8.43755 33.7521 8.48963 34.4167C8.62296 36.0854 8.68963 36.9208 8.93547 37.6167C9.21638 38.4123 9.67186 39.1349 10.2685 39.7316C10.8651 40.3282 11.5878 40.7837 12.3834 41.0646C13.0792 41.3104 13.9146 41.3771 15.5834 41.5104C16.248 41.5625 16.5813 41.5896 16.9 41.6521C17.6334 41.7979 18.3313 42.0875 18.9521 42.5021C19.223 42.6833 19.4771 42.9 19.9834 43.3333C21.2584 44.4187 21.8959 44.9625 22.5625 45.2812C24.1042 46.0167 25.8959 46.0167 27.4375 45.2812C28.1042 44.9625 28.7417 44.4187 30.0167 43.3333C30.523 42.9 30.7771 42.6833 31.048 42.5021C31.6688 42.0854 32.3667 41.7979 33.1 41.6521C33.4188 41.5896 33.7521 41.5625 34.4167 41.5104C36.0855 41.3771 36.9209 41.3104 37.6167 41.0646C38.4123 40.7837 39.135 40.3282 39.7316 39.7316C40.3282 39.1349 40.7837 38.4123 41.0646 37.6167C41.3105 36.9208 41.3771 36.0854 41.5105 34.4167C41.5625 33.7521 41.5896 33.4187 41.6521 33.1C41.798 32.3667 42.0875 31.6687 42.5021 31.0479C42.6834 30.7771 42.9 30.5229 43.3334 30.0167C44.4188 28.7417 44.9625 28.1042 45.2813 27.4375C46.0167 25.8958 46.0167 24.1042 45.2813 22.5625C44.9625 21.8958 44.4188 21.2583 43.3334 19.9833C43.0369 19.6557 42.7594 19.3114 42.5021 18.9521C42.0859 18.331 41.7969 17.6335 41.6521 16.9C41.5805 16.4641 41.5332 16.0245 41.5105 15.5833C41.3771 13.9146 41.3105 13.0792 41.0646 12.3833C40.7837 11.5877 40.3282 10.8651 39.7316 10.2684C39.135 9.6718 38.4123 9.21632 37.6167 8.93541C36.9209 8.68958 36.0855 8.62291 34.4167 8.48958C33.9755 8.46685 33.536 8.41956 33.1 8.34791C32.3665 8.2031 31.669 7.91419 31.048 7.49791C30.6891 7.24013 30.3448 6.96262 30.0167 6.66666C28.7417 5.58125 28.1042 5.0375 27.4375 4.71875C26.6765 4.35496 25.8436 4.16614 25 4.16614C24.1565 4.16614 23.3236 4.35496 22.5625 4.71875C21.8959 5.0375 21.2584 5.58125 19.9834 6.66666ZM32.9813 17.0208C33.2986 17.3388 33.4768 17.7696 33.4768 18.2187C33.4768 18.6679 33.2986 19.0987 32.9813 19.4167L19.4167 32.9833C19.2622 33.1525 19.0749 33.2886 18.8663 33.3834C18.6577 33.4782 18.4321 33.5297 18.203 33.5349C17.9739 33.54 17.7462 33.4987 17.5335 33.4134C17.3208 33.3281 17.1276 33.2006 16.9656 33.0386C16.8036 32.8766 16.6761 32.6834 16.5908 32.4707C16.5055 32.2581 16.4642 32.0303 16.4693 31.8012C16.4745 31.5722 16.526 31.3465 16.6208 31.1379C16.7156 30.9293 16.8517 30.7421 17.0209 30.5875L30.5834 17.0229C30.9013 16.7056 31.3321 16.5274 31.7813 16.5274C32.2305 16.5274 32.6613 16.7056 32.9792 17.0229M32.9105 30.6542C32.9105 31.2537 32.6723 31.8286 32.2484 32.2525C31.8245 32.6764 31.2495 32.9146 30.65 32.9146C30.0505 32.9146 29.4756 32.6764 29.0517 32.2525C28.6278 31.8286 28.3896 31.2537 28.3896 30.6542C28.3896 30.0547 28.6278 29.4797 29.0517 29.0558C29.4756 28.6319 30.0505 28.3937 30.65 28.3937C31.2495 28.3937 31.8245 28.6319 32.2484 29.0558C32.6723 29.4797 32.9105 30.0547 32.9105 30.6542ZM19.348 21.6125C19.9475 21.6125 20.5224 21.3743 20.9463 20.9504C21.3702 20.5265 21.6084 19.9516 21.6084 19.3521C21.6084 18.7526 21.3702 18.1776 20.9463 17.7537C20.5224 17.3298 19.9475 17.0917 19.348 17.0917C18.7485 17.0917 18.1735 17.3298 17.7496 17.7537C17.3257 18.1776 17.0875 18.7526 17.0875 19.3521C17.0875 19.9516 17.3257 20.5265 17.7496 20.9504C18.1735 21.3743 18.7485 21.6125 19.348 21.6125Z" fill="#007CC2"/>
</svg>
