<svg width="42" height="38" viewBox="0 0 42 38" fill="none" xmlns="http://www.w3.org/2000/svg">
<path d="M41.0002 17.375L31.4169 9.66667V4.41667C31.4679 3.36446 31.0996 2.33496 30.3927 1.55389C29.6859 0.772817 28.6981 0.303918 27.6461 0.25H3.89606C2.85141 0.314499 1.87424 0.787985 1.17623 1.56788C0.478221 2.34778 0.11559 3.37128 0.166898 4.41667V25.25C0.147562 26.0773 0.375011 26.8916 0.820251 27.5892C1.26549 28.2867 1.90836 28.8359 2.6669 29.1667C2.28322 30.1053 2.13369 31.1232 2.2312 32.1325C2.32872 33.1419 2.67035 34.1123 3.22663 34.9601C3.78291 35.8079 4.53712 36.5077 5.42419 36.999C6.31126 37.4903 7.30454 37.7583 8.31834 37.7801C9.33213 37.8018 10.336 37.5765 11.2433 37.1237C12.1506 36.6708 12.9341 36.004 13.5262 35.1808C14.1183 34.3576 14.5011 33.4027 14.6418 32.3985C14.7825 31.3942 14.6767 30.3709 14.3336 29.4167H27.5836C27.2409 30.3607 27.1308 31.3734 27.2626 32.369C27.3943 33.3646 27.7641 34.3138 28.3405 35.1362C28.9169 35.9586 29.683 36.6299 30.5739 37.0935C31.4648 37.557 32.4543 37.799 33.4586 37.799C34.4628 37.799 35.4523 37.557 36.3432 37.0935C37.2342 36.6299 38.0002 35.9586 38.5766 35.1362C39.153 34.3138 39.5228 33.3646 39.6545 32.369C39.7863 31.3734 39.6762 30.3607 39.3336 29.4167H39.7502C40.3028 29.4167 40.8327 29.1972 41.2234 28.8065C41.6141 28.4158 41.8336 27.8859 41.8336 27.3333V19C41.8272 18.6836 41.7488 18.3729 41.6044 18.0913C41.46 17.8098 41.2534 17.5648 41.0002 17.375ZM37.6669 20V25.25H31.4169V15L37.6669 20ZM10.5836 31.5C10.5836 31.912 10.4614 32.3148 10.2325 32.6574C10.0035 33 9.67817 33.2671 9.29749 33.4247C8.91681 33.5824 8.49792 33.6237 8.09379 33.5433C7.68967 33.4629 7.31845 33.2645 7.02709 32.9731C6.73573 32.6818 6.53731 32.3106 6.45693 31.9064C6.37654 31.5023 6.4178 31.0834 6.57548 30.7027C6.73316 30.3221 7.00019 29.9967 7.34279 29.7678C7.6854 29.5388 8.08819 29.4167 8.50023 29.4167C9.05276 29.4167 9.58267 29.6362 9.97337 30.0269C10.3641 30.4176 10.5836 30.9475 10.5836 31.5ZM35.5836 31.5C35.5836 31.912 35.4614 32.3148 35.2325 32.6574C35.0035 33 34.6782 33.2671 34.2975 33.4247C33.9168 33.5824 33.4979 33.6237 33.0938 33.5433C32.6897 33.4629 32.3184 33.2645 32.0271 32.9731C31.7357 32.6818 31.5373 32.3106 31.4569 31.9064C31.3765 31.5023 31.4178 31.0834 31.5755 30.7027C31.7332 30.3221 32.0002 29.9967 32.3428 29.7678C32.6854 29.5388 33.0882 29.4167 33.5002 29.4167C34.0528 29.4167 34.5827 29.6362 34.9734 30.0269C35.3641 30.4176 35.5836 30.9475 35.5836 31.5Z" fill="#007CC2"/>
</svg>
