<svg width="50" height="50" viewBox="0 0 50 50" fill="none" xmlns="http://www.w3.org/2000/svg">
<path fill-rule="evenodd" clip-rule="evenodd" d="M42.5235 20.5417C42.4021 20.5359 42.2805 20.5338 42.1589 20.5355H37.086C32.936 20.5355 29.3818 23.8292 29.3818 28.1251C29.3818 32.4209 32.936 35.7146 37.0881 35.7146H42.1568C42.2839 35.7146 42.4068 35.7146 42.5214 35.7063C43.378 35.6516 44.1855 35.2873 44.7934 34.6813C45.4013 34.0753 45.7682 33.269 45.8256 32.4126C45.8339 32.2896 45.8339 32.1584 45.8339 32.0376V24.2126C45.8339 24.0917 45.8339 23.9605 45.8256 23.8376C45.7682 22.9815 45.4017 22.1754 44.7942 21.5694C44.1867 20.9635 43.3797 20.599 42.5235 20.5438M36.6423 30.1501C37.711 30.1501 38.5798 29.2459 38.5798 28.1271C38.5798 27.0084 37.711 26.1042 36.6423 26.1042C35.5735 26.1042 34.7068 27.0084 34.7068 28.1271C34.7068 29.2459 35.5714 30.1501 36.6423 30.1501Z" fill="#007CC2"/>
<path fill-rule="evenodd" clip-rule="evenodd" d="M42.1569 38.75C42.2267 38.7475 42.2961 38.7615 42.3595 38.7908C42.4229 38.8201 42.4786 38.8639 42.5219 38.9186C42.5653 38.9733 42.5952 39.0375 42.6093 39.1059C42.6233 39.1743 42.6211 39.2451 42.6028 39.3125C42.1986 40.7541 41.559 41.9833 40.5319 43.0166C39.0299 44.5312 37.1236 45.2041 34.7694 45.5229C32.4819 45.8333 29.5611 45.8333 25.8694 45.8333H21.6257C17.9361 45.8333 15.0132 45.8333 12.7257 45.5229C10.3715 45.2041 8.46527 44.5312 6.96318 43.0166C5.4611 41.5062 4.79443 39.5833 4.47777 37.2125C4.16943 34.9041 4.16943 31.9583 4.16943 28.2395V28.0104C4.16943 24.2916 4.16943 21.3437 4.47777 19.0395C4.79443 16.6666 5.4611 14.75 6.9611 13.2312C8.46318 11.7187 10.3694 11.0437 12.7236 10.727C15.0132 10.4166 17.9361 10.4166 21.6257 10.4166H25.8694C29.559 10.4166 32.4819 10.4166 34.7694 10.727C37.1236 11.0458 39.0299 11.7187 40.5319 13.2312C41.559 14.2666 42.1986 15.4958 42.6028 16.9395C42.6207 17.0068 42.6226 17.0773 42.6084 17.1455C42.5942 17.2136 42.5642 17.2775 42.5209 17.3319C42.4775 17.3864 42.4221 17.43 42.3589 17.4592C42.2957 17.4883 42.2265 17.5023 42.1569 17.5H37.0882C31.3924 17.5 26.3736 22.0354 26.3736 28.125C26.3736 34.2145 31.3944 38.75 37.0903 38.75H42.1569ZM11.6986 18.5125C11.5002 18.5133 11.304 18.5532 11.1211 18.6298C10.9381 18.7065 10.7721 18.8184 10.6324 18.9593C10.4927 19.1001 10.3822 19.2671 10.307 19.4506C10.2319 19.6342 10.1936 19.8308 10.1944 20.0291C10.1944 20.8687 10.8673 21.5479 11.6986 21.5479H19.7319C20.5653 21.5479 21.2382 20.8687 21.2382 20.0291C21.2393 19.6283 21.0813 19.2435 20.7989 18.9591C20.5164 18.6748 20.1327 18.5141 19.7319 18.5125H11.6986Z" fill="#007CC2"/>
<path d="M16.2048 8.3833L20.284 5.37705C21.3485 4.5901 22.6373 4.16541 23.9611 4.16541C25.2849 4.16541 26.5737 4.5901 27.6382 5.37705L31.7403 8.39996C30.0236 8.3333 28.1069 8.3333 26.009 8.3333H21.4882C19.5673 8.3333 17.8028 8.3333 16.2048 8.3833Z" fill="#007CC2"/>
</svg>
