<svg width="24" height="24" viewBox="0 0 24 24" fill="none" xmlns="http://www.w3.org/2000/svg">
<g clip-path="url(#clip0_2054_406)">
<path d="M0.513784 11.8564C0.513222 13.8729 1.04414 15.8418 2.05367 17.5773L0.417236 23.5067L6.5318 21.9157C8.22301 22.8294 10.1179 23.3081 12.0435 23.3082H12.0485C18.4052 23.3082 23.5797 18.1749 23.5824 11.8654C23.5836 8.80804 22.3849 5.93307 20.2071 3.77009C18.0296 1.6073 15.1336 0.41558 12.048 0.414185C5.69062 0.414185 0.516502 5.54721 0.513878 11.8564" fill="url(#paint0_linear_2054_406)"/>
<path d="M0.102006 11.8527C0.10135 13.9417 0.651297 15.981 1.69682 17.7786L0.00170898 23.9207L6.33552 22.2726C8.08069 23.2168 10.0456 23.7147 12.045 23.7154H12.0501C18.6349 23.7154 23.9952 18.3975 23.998 11.8621C23.9992 8.69488 22.7573 5.71656 20.5017 3.47609C18.2458 1.23591 15.2462 0.00130233 12.0501 0C5.46425 0 0.104631 5.31721 0.102006 11.8527ZM3.87402 17.469L3.63753 17.0965C2.64337 15.5277 2.11863 13.7149 2.11938 11.8534C2.12145 6.4213 6.57614 2.00186 12.0539 2.00186C14.7066 2.00298 17.1996 3.02921 19.0747 4.89116C20.9497 6.7533 21.9814 9.22865 21.9807 11.8614C21.9783 17.2935 17.5235 21.7135 12.0501 21.7135H12.0462C10.264 21.7126 8.51609 21.2376 6.99176 20.34L6.62901 20.1265L2.87039 21.1045L3.87402 17.469Z" fill="url(#paint1_linear_2054_406)"/>
<path d="M9.06384 6.89746C8.84019 6.40416 8.60482 6.39421 8.39213 6.38556C8.21797 6.37811 8.01888 6.37867 7.81997 6.37867C7.62088 6.37867 7.2974 6.453 7.02397 6.74928C6.75026 7.04583 5.979 7.76249 5.979 9.22007C5.979 10.6777 7.04881 12.0864 7.19794 12.2843C7.34726 12.4817 9.26322 15.5686 12.2976 16.7562C14.8195 17.743 15.3327 17.5468 15.88 17.4973C16.4274 17.448 17.6464 16.7808 17.8951 16.089C18.1439 15.3973 18.1439 14.8043 18.0693 14.6804C17.9947 14.557 17.7956 14.4829 17.4971 14.3348C17.1984 14.1866 15.7307 13.4698 15.4571 13.371C15.1834 13.2722 14.9844 13.2229 14.7853 13.5195C14.5862 13.8157 14.0145 14.4829 13.8402 14.6804C13.6662 14.8785 13.4919 14.9031 13.1935 14.755C12.8947 14.6063 11.9333 14.2938 10.7926 13.2846C9.90512 12.4993 9.30596 11.5296 9.1318 11.2329C8.95764 10.9367 9.11315 10.7762 9.26285 10.6285C9.39698 10.4958 9.56149 10.2826 9.7109 10.1096C9.85975 9.93663 9.90943 9.81318 10.009 9.6156C10.1086 9.41783 10.0588 9.24481 9.98423 9.09663C9.90943 8.94844 9.3293 7.48323 9.06384 6.89746Z" fill="white"/>
</g>
<defs>
<linearGradient id="paint0_linear_2054_406" x1="1158.68" y1="2309.67" x2="1158.68" y2="0.414185" gradientUnits="userSpaceOnUse">
<stop stop-color="#1FAF38"/>
<stop offset="1" stop-color="#60D669"/>
</linearGradient>
<linearGradient id="paint1_linear_2054_406" x1="1199.82" y1="2392.07" x2="1199.82" y2="0" gradientUnits="userSpaceOnUse">
<stop stop-color="#F9F9F9"/>
<stop offset="1" stop-color="white"/>
</linearGradient>
<clipPath id="clip0_2054_406">
<rect width="24" height="24" fill="white"/>
</clipPath>
</defs>
</svg>
